<svg xmlns="http://www.w3.org/2000/svg" viewBox="0 0 1800 1100" role="img" aria-label="Premium business logistics warehouse with dashboard controls">
  <defs>
    <linearGradient id="bizBg" x1="0" x2="1" y1="0" y2="1">
      <stop offset="0" stop-color="#0a1728"/>
      <stop offset="0.5" stop-color="#0f3460"/>
      <stop offset="1" stop-color="#f4a62a"/>
    </linearGradient>
  </defs>
  <rect width="1800" height="1100" fill="url(#bizBg)"/>
  <path d="M120 280h1560v620H120z" fill="#f6f8fb" opacity="0.18"/>
  <path d="M120 280l780-180 780 180" fill="#dbe5ef" opacity="0.26"/>
  <g transform="translate(1030 360)">
    <rect width="430" height="420" rx="34" fill="#ffffff" opacity="0.94"/>
    <rect x="42" y="44" width="170" height="22" rx="11" fill="#08111f"/>
    <rect x="42" y="92" width="330" height="16" rx="8" fill="#64748b"/>
    <rect x="42" y="150" width="90" height="180" rx="16" fill="#15a36b"/>
    <rect x="166" y="205" width="90" height="125" rx="16" fill="#f4a62a"/>
    <rect x="290" y="116" width="90" height="214" rx="16" fill="#0f3460"/>
    <rect x="42" y="365" width="282" height="14" rx="7" fill="#dbe5ef"/>
  </g>
  <g transform="translate(360 500)">
    <rect x="0" y="140" width="160" height="150" rx="10" fill="#f4a62a"/>
    <rect x="190" y="84" width="170" height="206" rx="10" fill="#dbe5ef"/>
    <rect x="392" y="18" width="190" height="272" rx="10" fill="#ffffff"/>
    <path d="M-80 315h780" stroke="#08111f" stroke-width="48" stroke-linecap="round"/>
  </g>
  <path d="M300 840c250-110 460-104 630 0 205 126 408 112 630-20" fill="none" stroke="#15a36b" stroke-width="18" stroke-linecap="round" stroke-dasharray="60 46"/>
  <g transform="translate(650 765)">
    <circle cx="60" cy="75" r="42" fill="#08111f"/>
    <circle cx="205" cy="75" r="42" fill="#08111f"/>
    <path d="M65 68h80l48-58 24 68h-72l-22-44" fill="none" stroke="#f4a62a" stroke-width="20" stroke-linecap="round" stroke-linejoin="round"/>
  </g>
</svg>
