<svg xmlns="http://www.w3.org/2000/svg" viewBox="0 0 1800 1100" role="img" aria-label="Trusted rider network across Lagos and Ogun with secure verification">
  <defs>
    <linearGradient id="trustBg" x1="0" x2="1" y1="0" y2="1">
      <stop offset="0" stop-color="#08111f"/>
      <stop offset="0.48" stop-color="#0f3460"/>
      <stop offset="1" stop-color="#15a36b"/>
    </linearGradient>
  </defs>
  <rect width="1800" height="1100" fill="url(#trustBg)"/>
  <g opacity="0.22" fill="none" stroke="#ffffff" stroke-width="3">
    <circle cx="910" cy="530" r="360"/>
    <circle cx="910" cy="530" r="230"/>
    <circle cx="910" cy="530" r="110"/>
    <path d="M220 530h1380M910 110v840"/>
  </g>
  <g fill="#ffffff" opacity="0.95">
    <circle cx="510" cy="420" r="58"/>
    <circle cx="1280" cy="400" r="58"/>
    <circle cx="700" cy="770" r="58"/>
    <circle cx="1185" cy="770" r="58"/>
  </g>
  <g fill="#f4a62a">
    <circle cx="510" cy="420" r="20"/>
    <circle cx="1280" cy="400" r="20"/>
    <circle cx="700" cy="770" r="20"/>
    <circle cx="1185" cy="770" r="20"/>
  </g>
  <path d="M510 420c180-120 440-130 770-20M510 420c90 260 305 385 675 350M1280 400c-70 220-255 350-580 370" fill="none" stroke="#f4a62a" stroke-width="18" stroke-linecap="round" stroke-dasharray="48 38"/>
  <g transform="translate(780 330)">
    <path d="M130 0l145 58v122c0 126-78 238-145 270C63 418-15 306-15 180V58L130 0z" fill="#ffffff" opacity="0.94"/>
    <path d="M68 210l44 45 98-128" fill="none" stroke="#15a36b" stroke-width="34" stroke-linecap="round" stroke-linejoin="round"/>
  </g>
  <g transform="translate(980 655)">
    <circle cx="72" cy="124" r="46" fill="#08111f"/>
    <circle cx="224" cy="124" r="46" fill="#08111f"/>
    <path d="M76 116h72l54-66 25 74h-82l-22-52" fill="none" stroke="#f4a62a" stroke-width="20" stroke-linecap="round" stroke-linejoin="round"/>
    <circle cx="184" cy="18" r="26" fill="#ffffff"/>
    <path d="M174 48l-28 62h56l34 34" fill="none" stroke="#ffffff" stroke-width="26" stroke-linecap="round" stroke-linejoin="round"/>
  </g>
</svg>
