<svg xmlns="http://www.w3.org/2000/svg" viewBox="0 0 1600 950" role="img" aria-label="FastFleet warehouse and package dispatch">
  <defs>
    <linearGradient id="bg" x1="0" x2="1" y1="0" y2="1"><stop stop-color="#eff8ff"/><stop offset=".5" stop-color="#fff"/><stop offset="1" stop-color="#fff0e4"/></linearGradient>
    <filter id="d"><feDropShadow dx="0" dy="24" stdDeviation="25" flood-color="#082968" flood-opacity=".18"/></filter>
  </defs>
  <rect width="1600" height="950" fill="url(#bg)"/>
  <path d="M160 636V330l520-164 520 164v306z" fill="#fff" filter="url(#d)"/>
  <path d="M160 330l520-164 520 164" fill="none" stroke="#ff6a00" stroke-width="28" stroke-linejoin="round"/>
  <rect x="530" y="438" width="300" height="198" rx="20" fill="#082968"/>
  <rect x="248" y="430" width="190" height="120" rx="18" fill="#dceeff"/>
  <rect x="922" y="430" width="190" height="120" rx="18" fill="#c7f9df"/>
  <path d="M0 648h1600v302H0z" fill="#0d3b82"/>
  <g filter="url(#d)">
    <rect x="332" y="612" width="200" height="142" rx="22" fill="#ffb84d"/>
    <path d="M332 666h200" stroke="#fff" stroke-width="14" opacity=".65"/>
    <rect x="590" y="572" width="260" height="182" rx="24" fill="#ff6a00"/>
    <path d="M650 642h140M650 690h100" stroke="#fff" stroke-width="20" stroke-linecap="round"/>
    <rect x="918" y="620" width="250" height="134" rx="24" fill="#fff"/>
    <path d="M970 674h130" stroke="#082968" stroke-width="20" stroke-linecap="round"/>
  </g>
</svg>
