<svg xmlns="http://www.w3.org/2000/svg" viewBox="0 0 1600 950" role="img" aria-label="FastFleet customer receiving a city parcel">
  <defs>
    <linearGradient id="sky" x1="0" x2="1" y1="0" y2="1"><stop stop-color="#eaf7ff"/><stop offset=".48" stop-color="#fff3df"/><stop offset="1" stop-color="#c7f9df"/></linearGradient>
    <linearGradient id="road" x1="0" x2="1"><stop stop-color="#082968"/><stop offset="1" stop-color="#1b75bb"/></linearGradient>
    <filter id="soft" x="-20%" y="-20%" width="140%" height="140%"><feDropShadow dx="0" dy="22" stdDeviation="24" flood-color="#082968" flood-opacity=".2"/></filter>
  </defs>
  <rect width="1600" height="950" fill="url(#sky)"/>
  <circle cx="1320" cy="150" r="96" fill="#ffb84d" opacity=".75"/>
  <g opacity=".88">
    <rect x="110" y="300" width="160" height="330" rx="18" fill="#ffffff"/>
    <rect x="305" y="220" width="210" height="420" rx="20" fill="#dff1ff"/>
    <rect x="555" y="330" width="170" height="310" rx="18" fill="#ffffff"/>
    <rect x="760" y="250" width="240" height="390" rx="22" fill="#e8f6ee"/>
    <rect x="1035" y="320" width="180" height="320" rx="20" fill="#ffffff"/>
    <rect x="1250" y="270" width="230" height="370" rx="20" fill="#dceeff"/>
  </g>
  <path d="M0 655h1600v295H0z" fill="url(#road)"/>
  <path d="M120 770c260-74 504-76 760-6 200 55 392 52 600-24" fill="none" stroke="#fff" stroke-width="13" stroke-linecap="round" stroke-dasharray="58 44" opacity=".72"/>
  <g filter="url(#soft)">
    <rect x="215" y="560" width="375" height="165" rx="32" fill="#fff"/>
    <path d="M260 640h250l-36-54H312z" fill="#ff6a00"/>
    <circle cx="305" cy="728" r="43" fill="#0b2f72"/>
    <circle cx="510" cy="728" r="43" fill="#0b2f72"/>
    <circle cx="305" cy="728" r="18" fill="#fff"/>
    <circle cx="510" cy="728" r="18" fill="#fff"/>
    <rect x="378" y="594" width="92" height="44" rx="10" fill="#082968"/>
  </g>
  <g filter="url(#soft)">
    <rect x="1002" y="500" width="250" height="184" rx="26" fill="#fff"/>
    <rect x="1030" y="532" width="192" height="34" rx="8" fill="#ffe8d2"/>
    <rect x="1030" y="584" width="150" height="24" rx="8" fill="#c7f9df"/>
    <circle cx="920" cy="460" r="70" fill="#082968"/>
    <path d="M890 560c16-42 43-66 82-68 37 7 61 31 73 73l35 132H862z" fill="#ff8a2b"/>
  </g>
</svg>
