<svg xmlns="http://www.w3.org/2000/svg" viewBox="0 0 1600 950" role="img" aria-label="FastFleet delivery van near a shop">
  <defs>
    <linearGradient id="bg" x1="0" x2="1" y1="0" y2="1"><stop stop-color="#eaf5ff"/><stop offset=".55" stop-color="#fff"/><stop offset="1" stop-color="#fff1df"/></linearGradient>
    <filter id="s"><feDropShadow dx="0" dy="24" stdDeviation="28" flood-color="#082968" flood-opacity=".2"/></filter>
  </defs>
  <rect width="1600" height="950" fill="url(#bg)"/>
  <rect x="106" y="238" width="430" height="374" rx="34" fill="#fff" filter="url(#s)"/>
  <rect x="148" y="290" width="344" height="74" rx="14" fill="#ff6a00"/>
  <rect x="148" y="405" width="126" height="140" rx="14" fill="#dceeff"/>
  <rect x="304" y="405" width="188" height="40" rx="12" fill="#c7f9df"/>
  <rect x="304" y="472" width="146" height="32" rx="12" fill="#dceeff"/>
  <path d="M0 650h1600v300H0z" fill="#082968"/>
  <path d="M90 770h1420" stroke="#fff" stroke-width="12" stroke-linecap="round" stroke-dasharray="60 46" opacity=".75"/>
  <g filter="url(#s)">
    <path d="M664 486h452c76 0 152 58 176 132l26 78H552l34-132c15-48 33-78 78-78z" fill="#fff"/>
    <path d="M750 520h214v100H704z" fill="#0d3b82"/>
    <path d="M994 520h110c49 0 92 35 108 82l6 18H994z" fill="#1b75bb"/>
    <rect x="600" y="632" width="710" height="96" rx="24" fill="#ff6a00"/>
    <circle cx="710" cy="730" r="62" fill="#081f49"/>
    <circle cx="1158" cy="730" r="62" fill="#081f49"/>
    <circle cx="710" cy="730" r="26" fill="#fff"/>
    <circle cx="1158" cy="730" r="26" fill="#fff"/>
  </g>
</svg>
