<svg xmlns="http://www.w3.org/2000/svg" viewBox="0 0 1600 950" role="img" aria-label="FastFleet wallet and parcel payments">
  <defs>
    <linearGradient id="bg" x1="0" x2="1" y1="0" y2="1"><stop stop-color="#fff7ed"/><stop offset=".5" stop-color="#eef9ff"/><stop offset="1" stop-color="#e7f8ed"/></linearGradient>
    <filter id="drop"><feDropShadow dx="0" dy="28" stdDeviation="32" flood-color="#082968" flood-opacity=".22"/></filter>
  </defs>
  <rect width="1600" height="950" fill="url(#bg)"/>
  <circle cx="210" cy="180" r="120" fill="#ffb84d" opacity=".42"/>
  <circle cx="1370" cy="740" r="170" fill="#15a36b" opacity=".22"/>
  <g filter="url(#drop)">
    <rect x="358" y="248" width="884" height="460" rx="46" fill="#fff"/>
    <rect x="420" y="334" width="760" height="106" rx="24" fill="#082968"/>
    <circle cx="514" cy="387" r="34" fill="#ff6a00"/>
    <rect x="586" y="370" width="260" height="34" rx="15" fill="#fff" opacity=".85"/>
    <rect x="420" y="496" width="250" height="96" rx="24" fill="#c7f9df"/>
    <rect x="706" y="496" width="250" height="96" rx="24" fill="#fff0e2"/>
    <rect x="992" y="496" width="188" height="96" rx="24" fill="#dceeff"/>
    <path d="M518 546h72M800 546h72M1068 546h48" stroke="#082968" stroke-width="18" stroke-linecap="round"/>
  </g>
  <g filter="url(#drop)">
    <rect x="1128" y="188" width="230" height="190" rx="28" fill="#ff6a00"/>
    <path d="M1178 260h130M1178 310h86" stroke="#fff" stroke-width="20" stroke-linecap="round"/>
  </g>
</svg>
